<?xml version="1.0" encoding="utf-8"?>
<!-- Generator: Adobe Illustrator 16.0.0, SVG Export Plug-In . SVG Version: 6.00 Build 0)  -->
<!DOCTYPE svg PUBLIC "-//W3C//DTD SVG 1.1//EN" "http://www.w3.org/Graphics/SVG/1.1/DTD/svg11.dtd">
<svg version="1.1" id="Layer_1" xmlns="http://www.w3.org/2000/svg" xmlns:xlink="http://www.w3.org/1999/xlink" x="0px" y="0px"
	 width="59.333px" height="57.917px" viewBox="17.5 2.083 59.333 57.917" enable-background="new 17.5 2.083 59.333 57.917"
	 xml:space="preserve">
<g>
	<g>
		<path fill="#C02226" d="M74.514,49.232c-5.668-5.02-10.869-9.646-16.101-14.242c-1.229-1.08-2.332-2.68-4.149-2.516
			c-5.147,0.465-8.346-2.582-11.33-6.021c-4.787-5.516-11.761-7.307-17.848-10.606c-2.315-1.255-4.699-2.383-7.084-3.586
			C24.589,3.228,43.968-0.7,57.913,6.935C72.969,15.176,80.035,32.492,74.514,49.232z"/>
		<path fill="#C22327" d="M39.685,27.299c2.035,6.416,6.208,9.139,11.954,9.704c0.469,0.046,1.188,0.218,1.33,0.537
			c3.344,7.465,11.258,8.078,17.316,11.313c3.756,2.004,2.627,3.086,0.404,5.078c-7.484,6.707-19.248,7.045-27.015,0.687
			C35.61,48.018,33.797,37.635,39.685,27.299z"/>
	</g>
</g>
</svg>
