<?xml version="1.0" encoding="utf-8"?>
<!-- Generator: Adobe Illustrator 16.0.0, SVG Export Plug-In . SVG Version: 6.00 Build 0)  -->
<!DOCTYPE svg PUBLIC "-//W3C//DTD SVG 1.1//EN" "http://www.w3.org/Graphics/SVG/1.1/DTD/svg11.dtd">
<svg version="1.1" id="Layer_1" xmlns="http://www.w3.org/2000/svg" xmlns:xlink="http://www.w3.org/1999/xlink" x="0px" y="0px"
	 width="89px" height="60px" viewBox="0 0 89 60" enable-background="new 0 0 89 60" xml:space="preserve">
<g>
	<g>
		<path fill="#FFFFFF" d="M45.535,61c-13.81,0-27.621-0.043-41.43,0.044c-2.232,0.014-3.217-0.156-3.191-2.93
			C1.082,39.979,1.066,21.842,0.922,3.707C0.902,1.243,1.54,0.934,3.785,0.941c27.787,0.09,55.574,0.117,83.36-0.03
			c2.847-0.015,2.899,1.063,2.892,3.224c-0.063,17.97-0.103,35.94,0.038,53.909c0.02,2.596-0.706,3.036-3.109,3.016
			C73.156,60.938,59.346,61,45.535,61z"/>
		<path fill-rule="evenodd" clip-rule="evenodd" fill="#C02226" d="M74.513,49.233c-5.668-5.02-10.869-9.647-16.1-14.243
			c-1.23-1.08-2.332-2.68-4.15-2.516c-5.147,0.466-8.345-2.581-11.329-6.021c-4.787-5.516-11.761-7.307-17.848-10.606
			c-2.315-1.255-4.699-2.383-7.084-3.586C24.589,3.228,43.968-0.7,57.913,6.935C72.969,15.176,80.035,32.492,74.513,49.233z"/>
		<path fill-rule="evenodd" clip-rule="evenodd" fill="#C22327" d="M39.685,27.299c2.035,6.416,6.207,9.139,11.953,9.704
			c0.47,0.046,1.188,0.218,1.331,0.537c3.343,7.465,11.258,8.078,17.316,11.313c3.756,2.005,2.627,3.087,0.405,5.078
			c-7.485,6.708-19.248,7.045-27.015,0.687C35.61,48.017,33.797,37.635,39.685,27.299z"/>
	</g>
</g>
</svg>
