<svg id="at-logo" style="enable-background:new 0 0 506.4 120;" viewBox="0 0 180 120" xmlns="http://www.w3.org/2000/svg" width="60" height="40">
  <path style="fill:none;" d="M 73 69.0999984741211 L 73.19999694824219 68.9000015258789 L 84.19999694824219 49.5 Z"/>
  <path style="fill:#FCEE21;" d="M 87.30000305175781 44.099998474121094 L 84.19999694824219 49.5 L 87.30000305175781 44.20000076293945 Z"/>
  <path style="fill:#A8C357;" d="M 87.5 43.79999923706055 L 64.5 0 L 0 121 L 73 69.0999984741211 Z"/>
  <g>
    <path style="fill:#829962;" d="M 93.0999984741211 54.70000076293945 L 92.80000305175781 55 L 73.0999984741211 68.9000015258789 L 43.599998474121094 121.0999984741211 L 105.80000305175781 80 L 106 79.80000305175781 Z"/>
    <path style="fill:#829962;" d="M 113.0999984741211 0 L 87.5 43.79999923706055 L 93.0999984741211 54.70000076293945 L 143.3000030517578 54.79999923706055 Z"/>
    <path style="fill:#829962;" d="M 143.3000030517578 54.70000076293945 L 106 79.80000305175781 L 127 121.30000305175781 L 179.89999389648438 121.30000305175781 Z"/>
  </g>
  <g>
    <path style="fill:#6A8735;" d="M 87.5 43.79999923706055 L 113.0999984741211 0 L 83.5999984741211 0 L 64.5 0 Z"/>
    <path style="fill:#6A8735;" d="M 143.39999389648438 54.70000076293945 L 93.0999984741211 54.70000076293945 L 106 79.80000305175781 Z"/>
    <path style="fill:#6A8735;" d="M 73 69.0999984741211 L 0 121 L 43.70000076293945 121 Z"/>
  </g>
</svg>